<svg width="130" height="60" viewBox="0 0 130 60" fill="none" xmlns="http://www.w3.org/2000/svg">
<rect width="130" height="60" fill="white"/>
<path d="M11.0072 23L7.29492 10.4126H11.1056L12.8265 18.1568H12.9248L14.9654 10.4126H17.9647L20.0053 18.1814H20.1036L21.8245 10.4126H25.6352L21.9229 23H18.6531L16.5142 15.9688H16.4159L14.277 23H11.0072Z" fill="black"/>
<path d="M28.5408 23H24.8531L29.0079 10.4126H33.679L37.8338 23H34.1461L31.3926 13.8791H31.2943L28.5408 23ZM27.8524 18.0339H34.7853V20.5907H27.8524V18.0339Z" fill="black"/>
<path d="M37.1132 13.1661V10.4126H48.0534V13.1661H44.2674V23H40.8993V13.1661H37.1132Z" fill="black"/>
<path d="M49.3395 23V10.4126H58.4113V13.1661H52.7568V15.3296H57.9442V18.0831H52.7568V20.2465H58.3867V23H49.3395Z" fill="black"/>
<path d="M60.1061 23V10.4126H65.5394C66.4736 10.4126 67.291 10.5826 67.9917 10.9227C68.6924 11.2628 69.2373 11.7525 69.6266 12.3917C70.0158 13.0309 70.2105 13.7971 70.2105 14.6904C70.2105 15.5918 70.0097 16.3519 69.6082 16.9706C69.2107 17.5893 68.6514 18.0564 67.9302 18.3719C67.2132 18.6874 66.3752 18.8452 65.4164 18.8452H62.1712V16.19H64.7281C65.1296 16.19 65.4718 16.1409 65.7545 16.0425C66.0413 15.9401 66.2605 15.7782 66.4121 15.557C66.5678 15.3357 66.6457 15.0468 66.6457 14.6904C66.6457 14.3298 66.5678 14.0368 66.4121 13.8114C66.2605 13.582 66.0413 13.414 65.7545 13.3075C65.4718 13.1968 65.1296 13.1415 64.7281 13.1415H63.5234V23H60.1061ZM67.4816 17.2226L70.6284 23H66.9161L63.843 17.2226H67.4816Z" fill="black"/>
<path d="M71.6671 10.4126H75.9203L78.8459 17.5422H78.9934L81.919 10.4126H86.1721V23H82.8286V15.7229H82.7303L79.9276 22.9017H77.9117L75.109 15.6737H75.0107V23H71.6671V10.4126Z" fill="black"/>
<path d="M91.0615 23H87.3737L91.5286 10.4126H96.1997L100.355 23H96.6668L93.9133 13.8791H93.815L91.0615 23ZM90.3731 18.0339H97.306V20.5907H90.3731V18.0339Z" fill="black"/>
<path d="M101.567 23V10.4126H107C107.934 10.4126 108.752 10.5826 109.452 10.9227C110.153 11.2628 110.698 11.7525 111.087 12.3917C111.477 13.0309 111.671 13.7971 111.671 14.6904C111.671 15.5918 111.47 16.3519 111.069 16.9706C110.671 17.5893 110.112 18.0564 109.391 18.3719C108.674 18.6874 107.836 18.8452 106.877 18.8452H103.632V16.19H106.189C106.59 16.19 106.932 16.1409 107.215 16.0425C107.502 15.9401 107.721 15.7782 107.873 15.557C108.029 15.3357 108.106 15.0468 108.106 14.6904C108.106 14.3298 108.029 14.0368 107.873 13.8114C107.721 13.582 107.502 13.414 107.215 13.3075C106.932 13.1968 106.59 13.1415 106.189 13.1415H104.984V23H101.567ZM108.942 17.2226L112.089 23H108.377L105.304 17.2226H108.942Z" fill="black"/>
<path d="M113.128 23V10.4126H116.545V15.5016H116.717L120.503 10.4126H124.486L120.233 16.0179L124.584 23H120.503L117.676 18.2797L116.545 19.7548V23H113.128Z" fill="black"/>
<path d="M11.0072 50L7.29492 37.4126H11.1056L12.8265 45.1568H12.9248L14.9654 37.4126H17.9647L20.0053 45.1814H20.1036L21.8245 37.4126H25.6352L21.9229 50H18.6531L16.5142 42.9688H16.4159L14.277 50H11.0072Z" fill="black"/>
<path d="M28.5408 50H24.8531L29.0079 37.4126H33.679L37.8338 50H34.1461L31.3926 40.8791H31.2943L28.5408 50ZM27.8524 45.0339H34.7853V47.5907H27.8524V45.0339Z" fill="black"/>
<path d="M37.1132 40.1661V37.4126H48.0534V40.1661H44.2674V50H40.8993V40.1661H37.1132Z" fill="black"/>
<path d="M49.3395 50V37.4126H58.4113V40.1661H52.7568V42.3296H57.9442V45.0831H52.7568V47.2465H58.3867V50H49.3395Z" fill="black"/>
<path d="M60.1061 50V37.4126H65.5394C66.4736 37.4126 67.291 37.5826 67.9917 37.9227C68.6924 38.2628 69.2373 38.7525 69.6266 39.3917C70.0158 40.0309 70.2105 40.7971 70.2105 41.6904C70.2105 42.5918 70.0097 43.3519 69.6082 43.9706C69.2107 44.5893 68.6514 45.0564 67.9302 45.3719C67.2132 45.6874 66.3752 45.8452 65.4164 45.8452H62.1712V43.19H64.7281C65.1296 43.19 65.4718 43.1409 65.7545 43.0425C66.0413 42.9401 66.2605 42.7782 66.4121 42.557C66.5678 42.3357 66.6457 42.0468 66.6457 41.6904C66.6457 41.3298 66.5678 41.0368 66.4121 40.8114C66.2605 40.582 66.0413 40.414 65.7545 40.3075C65.4718 40.1968 65.1296 40.1415 64.7281 40.1415H63.5234V50H60.1061ZM67.4816 44.2226L70.6284 50H66.9161L63.843 44.2226H67.4816Z" fill="black"/>
<path d="M71.6671 37.4126H75.9203L78.8459 44.5422H78.9934L81.919 37.4126H86.1721V50H82.8286V42.7229H82.7303L79.9276 49.9017H77.9117L75.109 42.6737H75.0107V50H71.6671V37.4126Z" fill="black"/>
<path d="M91.0615 50H87.3737L91.5286 37.4126H96.1997L100.355 50H96.6668L93.9133 40.8791H93.815L91.0615 50ZM90.3731 45.0339H97.306V47.5907H90.3731V45.0339Z" fill="black"/>
<path d="M101.567 50V37.4126H107C107.934 37.4126 108.752 37.5826 109.452 37.9227C110.153 38.2628 110.698 38.7525 111.087 39.3917C111.477 40.0309 111.671 40.7971 111.671 41.6904C111.671 42.5918 111.47 43.3519 111.069 43.9706C110.671 44.5893 110.112 45.0564 109.391 45.3719C108.674 45.6874 107.836 45.8452 106.877 45.8452H103.632V43.19H106.189C106.59 43.19 106.932 43.1409 107.215 43.0425C107.502 42.9401 107.721 42.7782 107.873 42.557C108.029 42.3357 108.106 42.0468 108.106 41.6904C108.106 41.3298 108.029 41.0368 107.873 40.8114C107.721 40.582 107.502 40.414 107.215 40.3075C106.932 40.1968 106.59 40.1415 106.189 40.1415H104.984V50H101.567ZM108.942 44.2226L112.089 50H108.377L105.304 44.2226H108.942Z" fill="black"/>
<path d="M113.128 50V37.4126H116.545V42.5016H116.717L120.503 37.4126H124.486L120.233 43.0179L124.584 50H120.503L117.676 45.2797L116.545 46.7548V50H113.128Z" fill="black"/>
</svg>
