<svg xmlns="http://www.w3.org/2000/svg" viewBox="0 0 130.39 59.75" enable-background="new 0 0 130.39 59.75"><path fill="#e4e5e6" d="m120.91 23.475c3.219-.394 6.432-.787 8.833-1.082v-12.388l-.549.399c-4.973 3.62-10.149 6.774-15.668 9.545l-7.585.929-1.933.235v3.103c-7.181 2.863-14.987 5.229-23.666 7.238-13.664-1.042-26.818-2.418-39.43-4.125v-1.137l-1.546.188-2.809.342c-12.443-1.779-24.343-3.883-35.659-6.315l-.099-.021v5.075c6.427 1.38 13.189 2.62 20.354 3.734v6.227c-8.291.1-15.328.296-20.354.592v3.02l.029-.002c2.992-.177 6.699-.316 10.958-.423v2.073c-3.564.296-7.221.591-10.987.882v2.99l.979-.076v.889h1.532v-1.01l8.477-.666v1.677h1.753v-1.815l3.452-.271c1.399-.109 2.785-.215 4.163-.323v2.409h2.757c0-.765 0-1.659 0-2.624.349-.026.7-.054 1.049-.083v2.707h2.082v-2.87c3.789-.299 7.493-.6 11.11-.91 0 .775 0 1.529 0 2.229-1.558.328-3.064.678-4.509 1.048l.063.503h14.05v-.125c3.797-.569 7.755-1.055 11.796-1.464v2.35c.724.116 1.47.208 2.232.272v-2.839c.342-.033.686-.065 1.027-.097v3.01c.568.03 1.145.048 1.731.048.453 0 .902-.014 1.346-.034v-3.285c4.537-.371 9.124-.658 13.65-.875v3.043h2.234v-3.146c1-.044 2-.084 2.992-.122v3.267h3.735v-3.395c.399-.011.798-.023 1.193-.035v3.43h1.811c0-1.09 0-2.295 0-3.479 2.818-.069 5.571-.117 8.228-.146 0 1.247 0 2.5 0 3.625h1.811v-3.643c.831-.006 1.65-.011 2.46-.014v3.657h4.396c0-1.084 0-2.33 0-3.66 5.376.019 10.11.105 13.87.212v3.448h1.467c0-1.08 0-2.264 0-3.404 2.423.078 4.363.162 5.7.239l.304.017v-3.997l-.242-.02c-1.818-.145-3.744-.286-5.762-.421 0-.536 0-.922 0-1.097 1.887.042 3.789.08 5.716.113l.287.005v-3.072l-.27-.005c-7.134-.129-14.157-.34-21.07-.625 0-1.511 0-2.935 0-4.17 4.302-1.595 8.465-3.396 12.505-5.45m-99.75 16.389c-2.486.225-5.02.448-7.614.668v-1.969c2.389-.053 4.938-.095 7.614-.128v1.429m2.757-.254c0-.402 0-.804 0-1.205 3.946-.036 8.14-.055 12.514-.05-4.02.434-8.189.851-12.514 1.255m14.245-4.268c-4.999-.007-9.781.006-14.245.048 0-2.072 0-3.75 0-4.353.779-.095 2.944-.358 5.381-.654 2.886.394 5.842.767 8.864 1.123 0 1.067 0 2.394 0 3.836m6.968 7.174c-1.434.235-2.84.481-4.211.742v-1.915c1.416-.125 2.819-.25 4.211-.38v1.553m14.43-1.859c-4.053.404-8.01.884-11.796 1.449v-1.393c4.03-.387 7.964-.799 11.796-1.25v1.194m0-5.274c-.276.042-.549.086-.827.128-6.085-.084-12.08-.139-17.814-.159v-3.526c5.935.668 12.136 1.271 18.641 1.805v1.752m3.26 4.965c-.342.029-.685.062-1.027.093v-1.247c.342-.042.688-.082 1.027-.125v1.279m-1.027-5.316v-1.225c1.656.131 3.326.259 5.02.38-1.644.291-3.319.571-5.02.845m17.754 4.187c-4.534.218-9.124.503-13.65.87v-1.417c.075-.009.154-.021.229-.03 4.478.08 8.97.176 13.421.29v.287m2.234-.102v-.127c.619.016 1.234.034 1.85.051-.615.023-1.23.05-1.85.076m2.992-3.06c-.76-.022-1.524-.043-2.286-.062.765-.149 1.528-.299 2.286-.455v.517m4.928.148c-.396-.013-.794-.025-1.193-.037v-.683c.399.019.793.041 1.193.06v.66m10.04.351c-2.692-.105-5.439-.203-8.228-.293 0-.211 0-.38 0-.481.199-.025.528-.066.931-.114 2.398.107 4.827.208 7.296.304.001.179.001.377.001.584m4.271.173c-.815-.035-1.634-.067-2.46-.102v-.589c.818.031 1.632.062 2.46.09v.601m0-3.825c-.823-.041-1.642-.08-2.46-.12v-.047l-.27.033c-1.366-.067-2.727-.139-4.083-.214 2.312-.645 4.581-1.338 6.813-2.08v2.428m18.265 3.744v1.033c-4.275-.276-8.937-.528-13.87-.757 0-.217 0-.432 0-.648 4.503.143 9.13.266 13.87.372z"/><g fill="#fff"><path d="m34.512 38.82v.368c.623-.064 1.252-.128 1.87-.195v-.371c-.621.066-1.241.133-1.87.198"/><path d="m36.641 38.594v.373c.638-.069 1.266-.137 1.517-.142v-.371c-.249.004-.882.073-1.517.14"/><path d="m64.845 34.861v.408c.762-.125 1.522-.252 2.276-.38v-.416c-.754.131-1.508.26-2.276.388"/><path d="m7.867 41.24v.39c.505-.042 1.012-.084 1.514-.128v-.385c-.499.041-1.01.082-1.514.123"/><path d="m13.11 40.809v.38c.533-.046 1.054-.092 1.583-.138v-.376c-.527.044-1.052.089-1.583.134"/><path d="m11.337 40.958v.382c.519-.044 1.044-.087 1.56-.132v-.379c-.517.041-1.038.085-1.56.129"/><path d="m6.172 41.38v.393c.497-.042.995-.083 1.489-.125v-.388c-.494.038-.99.079-1.489.12"/><path d="m9.59 41.1v.384c.516-.043 1.025-.085 1.535-.129v-.383c-.513.044-1.018.086-1.535.128"/><path d="m1.235 41.77v.407c.478-.039.95-.079 1.424-.117v-.4c-.474.034-.947.072-1.424.11"/><path d="m4.5 41.514v.395c.494-.039.979-.081 1.469-.122v-.392c-.49.04-.974.078-1.469.119"/><path d="m.801 41.809v.408c.236-.02.006-.006.241-.024v-.407c-.235.017-.005.004-.241.023"/><path d="m2.855 41.642v.402c.481-.039.968-.078 1.446-.117v-.397c-.477.036-.965.074-1.446.112"/><path d="m14.915 40.657v.375c.536-.045 1.074-.092 1.606-.138v-.376c-.532.045-1.068.092-1.606.139"/><path d="m26.316 39.635v.365c.589-.057 1.176-.111 1.759-.168v-.368c-.586.056-1.167.113-1.759.171"/><path d="m28.32 39.44v.37c.598-.06 1.19-.119 1.784-.177v-.366c-.587.058-1.189.115-1.784.173"/><path d="m32.417 39.03v.37c.618-.064 1.228-.128 1.841-.19v-.368c-.609.063-1.227.124-1.841.188"/><path d="m24.344 39.817v.369c.58-.053 1.158-.109 1.732-.164v-.366c-.571.053-1.156.108-1.732.161"/><path d="m30.352 39.24v.368c.606-.062 1.213-.12 1.813-.181v-.37c-.603.062-1.203.122-1.813.183"/><path d="m16.744 40.499v.376c.547-.05 1.088-.098 1.632-.145v-.373c-.541.048-1.087.094-1.632.142"/><path d="m23.912 39.858v.369c.571-.053-.372.035.195-.019v-.369c-.569.053.38-.033-.195.019"/><path d="m18.601 40.34v.371c.554-.048 1.107-.099 1.657-.146v-.373c-.553.05-1.101.101-1.657.148"/><path d="m20.486 40.17v.371c.564-.051.111-.011.669-.061v-.369c-.553.052-.11.009-.669.059"/><path d="m83.82 31.01v.479c.852-.206 1.692-.417 2.527-.631v-.489c-.832.217-1.675.431-2.527.641"/><path d="m124.86 13.966v.702c1.038-.674 2.062-1.371 3.077-2.083v-.671c-1.017.703-2.043 1.386-3.077 2.052"/><path d="m89.62 29.485v.499c.877-.241 1.745-.489 2.605-.74v-.515c-.857.257-1.728.509-2.605.756"/><path d="m101.76 26.11c.755-.277 1.503-.558 2.243-.848v-.598c-.74.294-1.488.583-2.243.866v.58"/><path d="m121.41 16.11v.71c1.02-.61 2.029-1.24 3.03-1.884v-.697c-1 .641-2.01 1.262-3.03 1.871"/><path d="m95.6 27.675v.537c.905-.287 1.8-.58 2.688-.88v-.556c-.885.307-1.783.607-2.688.899"/><path d="m114.76 19.807l1.717-.208c.377-.201.75-.407 1.127-.61v-.696c-.939.514-1.887 1.022-2.844 1.514"/><path d="m98.66 26.649v.559c.918-.313 1.827-.632 2.728-.959v-.579c-.898.333-1.81.659-2.728.979"/><path d="m86.7 30.28v.488c.863-.223 1.717-.451 2.564-.681v-.502c-.844.235-1.699.466-2.564.695"/><path d="m129.74 10.637c-.519.373-.857.618-1.379.981v.669c.523-.371.86-.625 1.379-1.01v-.644"/><path d="m118.01 18.07v.699c1.01-.553 2-1.122 2.987-1.705v-.705c-.986.585-1.981 1.155-2.987 1.711"/><path d="m92.59 28.619v.516c.889-.262 1.772-.532 2.646-.807v-.533c-.873.28-1.753.556-2.646.824"/><path d="m68.26 34.27c-.271.05-.545.098-.823.146v.416c.776-.134 1.549-.268 2.309-.405v-.072l-1.486-.085"/><path d="m83.18 31.64c.1-.023.2-.048.299-.072v-.475c-.613.149-1.231.299-1.854.446l1.555.101"/><path d="m79.49 32.02c.023 0 .045.003.065.004v-.019c-.02.004-.042.009-.065.015"/><path d="m79.81 31.953v.095c.279.02.558.042.838.062v-.343c-.003 0-.006 0-.01 0-.272.064-.549.124-.828.186"/><path d="m80.986 31.794v.343c.017 0 .035.001.052.003.149-.035.297-.067.444-.103.045-.009.103-.024.167-.038v-.156c-.221-.016-.441-.031-.663-.049"/><path d="m81.901 31.863v.078c.078-.02.159-.039.246-.059-.081-.007-.163-.013-.246-.019"/><path d="m12.68 23.19v.486c.903.168 1.814.33 2.727.495v-.486c-.91-.164-1.824-.327-2.727-.495"/><path d="m6.339 21.965v.495c.934.185 1.87.37 2.812.552v-.489c-.943-.184-1.877-.371-2.812-.558"/><path d="m9.534 22.595v.488c.919.177 1.84.354 2.769.526v-.489c-.928-.174-1.85-.349-2.769-.525"/><path d="m15.779 23.754v.485c.891.159 1.787.314 2.686.47v-.479c-.9-.157-1.794-.316-2.686-.476"/><path d="m30.589 26.2v.456c.83.123 1.658.247 2.491.368v-.457c-.831-.123-1.665-.242-2.491-.367"/><path d="m33.42 27.07c.04.006.08.013.121.019l1.704-.208c-.613-.087-1.217-.179-1.825-.268v.457"/><path d="m27.716 25.753v.464c.84.13 1.683.259 2.528.386v-.459c-.846-.126-1.686-.259-2.528-.391"/><path d="m18.831 24.292v.479c.878.15 1.76.301 2.646.448v-.474c-.887-.148-1.766-.3-2.646-.453"/><path d="m3.097 21.306v.495c.946.196 1.898.389 2.854.581v-.493c-.956-.193-1.908-.386-2.854-.583"/><path d="m21.838 24.807v.473c.867.144 1.733.285 2.606.426v-.474c-.871-.141-1.743-.28-2.606-.425"/><path d="m24.799 25.291v.473c.85.136 1.71.268 2.567.4v-.464c-.859-.135-1.714-.27-2.567-.409"/><path d="m.801 20.826v.125.37c.78.167 1.115.234 1.901.397v-.495c-.786-.164-1.121-.23-1.901-.397"/><path d="m54.58 29.337v.403c.722.079 1.45.153 2.174.23v-.398c-.724-.077-1.452-.154-2.174-.235"/><path d="m52.08 29.05v.409c.735.083 1.469.168 2.208.25v-.405c-.739-.083-1.472-.169-2.208-.254"/><path d="m57.05 29.605v.397c.714.077 1.425.153 2.142.228v-.394c-.717-.075-1.428-.153-2.142-.231"/><path d="m59.49 29.867v.391c.699.072 1.405.141 2.108.209v-.387c-.702-.07-1.408-.14-2.108-.213"/><path d="m49.53 28.752v.417c.744.085 1.494.169 2.24.255v-.41c-.748-.086-1.496-.173-2.24-.262"/><path d="m41.657 27.763v.434c.779.101 1.562.2 2.346.299v-.429c-.784-.1-1.567-.201-2.346-.304"/><path d="m40.914 27.668v.434c.14.018.279.035.419.053v-.434c-.138-.018-.279-.035-.419-.053"/><path d="m44.32 28.11v.427c.768.096 1.539.191 2.31.284v-.421c-.772-.094-1.542-.192-2.31-.29"/><path d="m46.945 28.437v.421c.757.092 1.515.183 2.275.274v-.417c-.76-.092-1.517-.185-2.275-.278"/><path d="m61.885 30.11v.386c.693.068 1.381.139 2.077.206v-.383c-.696-.069-1.385-.139-2.077-.209"/><path d="m73.34 31.18v.361c.637.053 1.284.103 1.924.155v-.355c-.643-.052-1.284-.107-1.924-.161"/><path d="m68.86 30.783v.369c.661.061 1.324.115 1.988.173v-.366c-.664-.058-1.327-.117-1.988-.176"/><path d="m66.57 30.566v.377c.673.061 1.341.126 2.02.186v-.372c-.673-.063-1.343-.127-2.02-.191"/><path d="m71.12 30.984v.363c.654.056 1.302.116 1.955.17v-.365c-.653-.054-1.304-.111-1.955-.168"/><path d="m77.68 31.886c.179.014.354.03.533.043.386-.085.772-.173 1.157-.26-.567-.044-1.125-.091-1.69-.136v.353"/><path d="m75.53 31.36v.354c.631.051 1.262.103 1.895.153v-.352c-.63-.052-1.264-.102-1.895-.155"/><path d="m64.25 30.348v.38c.678.064 1.363.125 2.044.188v-.375c-.682-.063-1.367-.127-2.044-.193"/><path d="m129.3 34.32c.21.005.236.009.444.013v-.281c-.208-.004-.234-.011-.444-.014v.282"/><path d="m109.76 33.452v.293c.482.019.963.037 1.447.056v-.292c-.483-.019-.965-.038-1.447-.057"/><path d="m111.41 33.516v.291c.474.019.947.038 1.422.057v-.294c-.475-.016-.949-.035-1.422-.054"/><path d="m113.02 33.58v.29c.469.017.938.034 1.404.049v-.288c-.467-.017-.935-.035-1.404-.051"/><path d="m119.08 33.785v.286c-.448-.014-.894-.03-1.341-.043v-.288c.447.015.892.03 1.341.045"/><path d="m116.19 33.689v.288c.454.014.907.03 1.364.044v-.287c-.457-.014-.91-.029-1.364-.045"/><path d="m119.25 33.791v.285c.442.013.883.023 1.321.036v-.285c-.438-.014-.879-.024-1.321-.036"/><path d="m114.62 33.636v.29c.459.016.921.029 1.382.044v-.287c-.461-.016-.922-.03-1.382-.047"/><path d="m108.4 33.397c0 .099 0 .198 0 .296.386.016.777.028 1.164.045v-.295c-.386-.016-.777-.028-1.164-.046"/><path d="m127.93 34.01v.282c.403.009.806.017 1.208.025v-.282c-.403-.007-.805-.017-1.208-.025"/><path d="m126.53 33.977v.283c.41.009.818.017 1.228.026v-.282c-.41-.009-.819-.018-1.228-.027"/><path d="m123.69 33.912v.282c.421.011.84.022 1.261.031v-.282c-.42-.011-.839-.022-1.261-.031"/><path d="m122.23 33.871v.285c.426.011.855.024 1.282.033v-.283c-.427-.011-.855-.024-1.282-.035"/><path d="m125.13 33.946v.283c.413.009.828.018 1.244.027v-.282c-.417-.011-.832-.017-1.244-.028"/><path d="m120.76 33.831v.285c.433.012.866.023 1.301.034v-.283c-.434-.012-.868-.024-1.301-.036"/><path d="m102.94 33.452c.357.017.711.034 1.067.05v-.301c-.356-.018-.71-.037-1.067-.053v.304"/><path d="m101.55 33.08v.304c.394.02.788.037 1.181.058v-.304c-.393-.019-.787-.04-1.181-.058"/><path d="m97.54 32.868v.313c.084.003.167.01.252.015l1.353-.167v-.069c-.536-.032-1.068-.062-1.605-.092"/><path d="m99.37 32.969v.034l.192-.025c-.064-.001-.127-.006-.192-.009"/><path d="m96.26 32.797c-.19.053-.379.105-.57.156v.126c.542.029 1.086.061 1.633.088v-.312c-.356-.018-.71-.037-1.063-.058"/><path d="m95.3 33.06c.055.003.109.006.165.008v-.051c-.056.011-.11.028-.165.043"/><path d="m79.43 36.566v.131c-.217-.004-.432-.011-.646-.017.214-.037.432-.074.646-.114"/><path d="m84.77 36.83c-.312-.008-.623-.016-.935-.025v-.386c.312.007.623.016.935.025v.386"/><path d="m83.59 36.413v.386c-.604-.014-1.204-.031-1.811-.045v-.392c.607.018 1.206.034 1.811.051"/><path d="m89.59 36.582v.384c-.364-.011-.729-.023-1.092-.033v-.383c.363.011.728.022 1.092.032"/><path d="m104.01 37.465c-.396-.015-.794-.031-1.193-.046v-.374c.399.016.798.031 1.193.048v.372"/><path d="m102.6 37.04v.374c-.352-.012-.701-.028-1.055-.042v-.374c.353.015.703.029 1.055.042"/><path d="m18.704 36.34v-.449c.806-.011 1.621-.023 2.452-.032v.445c-.832.011-1.646.023-2.452.036"/><path d="m2.575 36.35v.458c-.78.039-1.07.046-1.774.089v-.46c.703-.042.992-.05 1.774-.087"/><path d="m15.65 36.39v-.451c.879-.016 1.774-.032 2.688-.047v.449c-.914.014-1.809.031-2.688.049"/><path d="m12.552 36.461v-.454c.887-.02 1.797-.04 2.726-.058v.45c-.929.02-1.839.039-2.726.062"/><path d="m9.405 36.545v-.455c.897-.026 1.819-.051 2.77-.073v.452c-.949.024-1.873.05-2.77.076"/><path d="m6.212 36.652v-.457c.902-.033 1.84-.064 2.811-.095v.456c-.971.031-1.909.062-2.811.096"/><path d="m2.969 36.79v-.458c.904-.043 1.854-.083 2.854-.122v.458c-.999.038-1.95.078-2.854.122"/><path d="m30.46 36.22v-.438c.823-.005 1.653-.006 2.491-.009v.436c-.837.002-1.667.004-2.491.011"/><path d="m33.29 36.21v-.435c.812-.002 1.628-.002 2.453-.002v.43c-.825.002-1.641.004-2.453.007"/><path d="m36.08 36.2v-.43c.688-.001 1.379 0 2.078 0 0 .144 0 .287 0 .43-.699 0-1.39 0-2.078 0"/><path d="m27.588 36.24v-.441c.834-.004 1.677-.009 2.529-.012v.437c-.852.006-1.695.01-2.529.016"/><path d="m24.671 36.26v-.442c.847-.009 1.7-.016 2.567-.021v.439c-.867.006-1.72.015-2.567.024"/><path d="m24.315 35.822v.443c-.134.001-.27.003-.403.004 0-.15 0-.297 0-.442.133-.002.27-.003.403-.005"/><path d="m51.949 36.26v-.417c.731.006 1.469.014 2.207.023v.304c-.244.034-.483.068-.728.103-.494-.005-.986-.008-1.479-.013"/><path d="m49.4 36.24v-.42c.746.006 1.491.013 2.241.019v.417c-.748-.007-1.495-.011-2.241-.016"/><path d="m56.15 35.889c-.566-.006-1.127-.012-1.69-.019v.259c.565-.079 1.132-.159 1.69-.24"/><path d="m46.818 36.23v-.421c.756.004 1.512.01 2.275.016v.42c-.76-.005-1.52-.01-2.275-.015"/><path d="m44.19 36.21v-.424c.765.005 1.538.01 2.309.014v.422c-.773-.004-1.543-.009-2.309-.012"/><path d="m41.2 35.777v.427c-.096 0-.195 0-.291 0v-.427c.096 0 .195 0 .291 0"/><path d="m41.529 36.2v-.426c.778.003 1.56.006 2.345.01v.424c-.786-.005-1.565-.006-2.345-.008"/><path d="m95.56 37.15v-.378c.549.018 1.087.039 1.63.059v.375c-.542-.018-1.081-.037-1.63-.056"/><path d="m97.42 37.22v-.375c.536.018 1.075.037 1.607.058v.375c-.532-.02-1.071-.039-1.607-.058"/><path d="m99.24 37.28v-.375c.164.006.331.01.492.017 0 .125 0 .246 0 .376-.162-.008-.328-.012-.492-.018"/><path d="m93.68 37.09v-.38c.553.018 1.109.037 1.658.056v.379c-.549-.019-1.105-.037-1.658-.055"/><path d="m91.77 37.03v-.382c.568.019 1.12.038 1.683.056v.38c-.563-.018-1.115-.037-1.683-.054"/><path d="m91.54 36.643v.38c-.012 0-.023 0-.032 0 0-.136 0-.263 0-.382.009.001.019.002.032.002"/><path d="m116.06 38.03v-.366c.457.025.914.05 1.362.075v.365c-.448-.025-.905-.049-1.362-.074"/><path d="m122.11 38.38v-.365c.054.004.109.007.163.011v.364c-.054-.003-.109-.007-.163-.01"/><path d="m117.61 38.11v-.366c.452.024.9.051 1.341.076v.365c-.441-.025-.889-.05-1.341-.075"/><path d="m119.13 38.2v-.365c.445.026.884.053 1.321.08v.363c-.436-.027-.875-.052-1.321-.078"/><path d="m121.93 38.37v-.365c-.432-.026-.862-.053-1.301-.081v.365c.438.026.869.054 1.301.081"/><path d="m109.64 37.709v-.368c.483.021.964.043 1.445.068v.368c-.481-.023-.962-.045-1.445-.068"/><path d="m114.49 37.946v-.366c.464.023.927.048 1.384.073v.366c-.457-.025-.92-.05-1.384-.073"/><path d="m111.28 37.785v-.368c.48.023.953.048 1.427.07v.368c-.474-.023-.947-.046-1.427-.07"/><path d="m109.44 37.33v.37c-.348-.016-.689-.031-1.038-.047 0-.125 0-.245 0-.369.349.014.691.032 1.038.046"/><path d="m114.3 37.937v-.367c-.464-.025-.934-.048-1.404-.073v.368c.471.025.94.047 1.404.072"/><path d="m129.01 38.868v-.365c-.396-.031-.801-.062-1.206-.093v.365c.405.031.81.062 1.206.093"/><path d="m126.24 38.659v-.364c-.411-.028-.825-.058-1.245-.088v.365c.42.028.835.058 1.245.087"/><path d="m123.74 38.12c0 .12 0 .235 0 .364.366.025.728.048 1.087.074v-.364c-.36-.025-.721-.049-1.087-.074"/><path d="m127.63 38.762v-.365c-.403-.029-.81-.06-1.223-.09v.364c.413.03.82.06 1.223.091"/><path d="m129.17 38.88v-.364c.251.02.325.016.571.036v.364c-.246-.02-.319-.017-.571-.036"/><path d="m92.22 39.3v.26c-.237.006-.472.013-.71.019 0-.1 0-.204 0-.304.238.008.473.017.71.025"/><path d="m96.59 39.454c-.351.008-.711.018-1.064.025v-.062c.353.012.71.024 1.064.037"/><path d="m53.32 41.838v.442c.627-.078 1.263-.152 1.896-.228v-.441c-.633.074-1.269.149-1.896.227"/><path d="m57.6 41.34v.436c.611-.067 1.222-.135 1.839-.199v-.432c-.617.062-1.228.131-1.839.195"/><path d="m51.13 42.12v.446c.639-.086 1.279-.17 1.926-.251v-.442c-.647.08-1.287.161-1.926.247"/><path d="m92.41 39.31v.249c.461-.014.925-.026 1.38-.039v-.166c-.458-.013-.919-.028-1.38-.044"/><path d="m55.48 41.582v.44c.619-.075 1.242-.146 1.869-.213v-.437c-.627.068-1.25.139-1.869.21"/><path d="m95.34 39.41v.073c-.455.011-.905.02-1.365.031v-.152c.457.014.911.032 1.365.048"/><path d="m40.914 43.737v.467c.275-.053.56-.103.839-.154v-.464c-.279.052-.564.1-.839.151"/><path d="m37.28 44.958c.294-.064.58-.131.879-.195 0-.137 0-.296 0-.473-.299.063-.585.13-.879.194v.474"/><path d="m42.04 43.535v.463c.674-.124 1.356-.244 2.046-.362v-.458c-.69.115-1.372.233-2.046.357"/><path d="m48.908 42.43v.45c.649-.094 1.297-.188 1.956-.277v-.447c-.659.086-1.307.18-1.956.274"/><path d="m47.759 42.59v.453c.289-.043.586-.083.878-.125v-.453c-.292.043-.589.083-.878.125"/><path d="m44.36 43.587c.254-.042.506-.087.764-.129v-.457c-.257.042-.509.086-.764.129v.457"/><path d="m81.78 39.554v.398c.166-.006.328-.014.489-.021v-.396c-.161.007-.323.013-.489.019"/><path d="m73.48 40.01v.41c.547-.036 1.089-.068 1.633-.103v-.406c-.543.03-1.086.063-1.633.099"/><path d="m78.959 40.1c.195-.011.39-.023.583-.033v-.402c-.193.011-.388.023-.583.033v.402"/><path d="m77.16 39.791v.405c.528-.031 1.057-.059 1.583-.087v-.403c-.526.027-1.055.055-1.583.085"/><path d="m71.6 40.13v.414c.55-.038 1.102-.075 1.655-.113v-.411c-.554.036-1.106.074-1.655.11"/><path d="m75.34 39.895v.407c.535-.031 1.072-.064 1.604-.094v-.405c-.532.03-1.069.059-1.604.092"/><path d="m67.75 40.41v.419c.57-.045 1.135-.092 1.708-.134v-.417c-.573.042-1.139.087-1.708.132"/><path d="m61.788 41.35c.342-.033.686-.065 1.027-.097v-.425c-.342.032-.685.061-1.027.094v.428"/><path d="m88.5 39.29v.389c.167-.006.332-.013.499-.018v-.388c-.167.007-.333.011-.499.017"/><path d="m89.2 39.653c.167-.005.331-.009.498-.016v-.386c-.167.004-.332.011-.498.016v.386"/><path d="m84.19 39.845c.19-.008.382-.018.573-.027v-.392c-.191.007-.383.017-.573.024v.395"/><path d="m65.892 40.557v.423c.538-.047 1.081-.085 1.62-.129v-.421c-.539.042-1.082.082-1.62.127"/><path d="m82.47 39.524v.398c.506-.024 1.01-.046 1.513-.069v-.393c-.504.02-1.01.042-1.513.064"/><path d="m35.502 45.36c.489-.115.984-.229 1.483-.341v-.475c-.726.16-1.439.324-2.141.492v.324h.658"/><path d="m69.69 40.26v.417c.562-.043 1.122-.081 1.684-.12v-.415c-.561.04-1.122.078-1.684.118"/><path d="m34.549 45.36v-.251c-.281.067-.568.133-.844.203l.006.048h.838"/><path d="m61.98 35.32v.239l-.199-.003v-.206z"/><path d="m55.39 36.31l1.62-.24v.26z"/><path d="m57.31 36.33h.666l1.504-.22v-.176l-1.4-.017-.77.113z"/><path d="m40.994 38.49l1.066-.12h-1.066z"/><path d="m62.29 35.563v-.293l2.24-.358v.408l-1.572.252z"/></g><path d="m87.58 45.36v-43.669h14.32v14.74h13.53v-14.74h14.31v43.669h-14.31v-16.92h-13.53v16.92z"/><path d="m71.52 18.371c-.423-4.549-3.276-7.157-7.764-7.157-5.03 0-8.07 4.307-8.07 12.739 0 6.126 1.335 11.887 8.615 11.887 4.609 0 6.794-3.215 7.339-7.399h13.769c-1.274 11.281-9.34 18.08-20.866 18.08-14.436 0-23.17-8.856-23.17-23.05 0-14.13 9.584-22.927 21.777-22.927 13.342 0 20.803 6.61 21.956 17.831h-13.587z"/><path d="m.801 45.36v-43.673h21.05c12.556 0 18.621 5.762 18.621 14.739 0 9.4-5.58 15.345-18.14 15.345h-7.217v13.588h-14.316m20.259-23.776c3.335 0 5.762-1.336 5.762-5.096 0-4.063-4.61-4.609-7.642-4.609h-4.064v9.706h5.944z"/><g fill="#5a5b5d"><path d="m15.12 43.43v-3.03c-.526.045-1.045.092-1.575.137v-1.969c.516-.011 1.043-.022 1.575-.031v-3.02c-5.684.112-10.56.278-14.315.499v3.02l.029-.002c2.992-.176 6.699-.317 10.958-.423v2.073c-3.564.296-7.221.591-10.987.882v2.99l.979-.078v.891h1.532v-1.01l8.477-.667v1.678h1.753v-1.815l1.574-.123"/><path d="m21.16 31.776h1.178c.542 0 1.063-.015 1.579-.038 0-.299 0-.541 0-.701.779-.095 2.944-.358 5.381-.654.502.068 1.017.134 1.523.201 2.646-.872 4.721-2.2 6.256-3.924l-.513.062c-12.443-1.779-24.343-3.883-35.659-6.315l-.099-.021v5.075c6.427 1.378 13.189 2.62 20.354 3.734v2.581"/></g><path d="m7.867 41.24v.388c.505-.041 1.012-.083 1.514-.125v-.387c-.499.042-1.01.083-1.514.124"/><path d="m13.541 40.772v.38c.533-.045.626-.055 1.155-.1v-.377c-.527.044-.624.054-1.155.097"/><path d="m11.337 40.958v.382c.519-.044-.064-.001.451-.047v-.378c-.517.041.071-.001-.451.043"/><path d="m6.172 41.38v.393c.497-.042.995-.083 1.489-.125v-.388c-.494.038-.99.079-1.489.12"/><path d="m9.59 41.1v.384c.515-.043 1.025-.085 1.535-.129v-.383c-.513.044-1.018.086-1.535.128"/><path d="m1.235 41.77v.407c.478-.039.95-.079 1.424-.117v-.402c-.474.036-.947.074-1.424.112"/><path d="m4.5 41.512v.397c.494-.039.979-.081 1.469-.12v-.394c-.49.041-.974.078-1.469.117"/><path d="m.801 41.809v.406c.234-.019.006-.005.241-.023v-.407c-.235.018-.005.005-.241.024"/><path d="m2.855 41.642v.402c.481-.039.968-.078 1.446-.117v-.397c-.477.036-.965.074-1.446.112"/><path d="m12.68 23.19v.486c.903.168 1.814.33 2.727.493v-.484c-.91-.164-1.824-.327-2.727-.495"/><path d="m6.339 21.967v.493c.934.185 1.87.37 2.812.552v-.489c-.943-.184-1.877-.371-2.812-.556"/><path d="m9.534 22.595v.488c.919.177 1.84.354 2.769.526v-.489c-.928-.173-1.85-.349-2.769-.525"/><path d="m15.779 23.754v.486c.891.158 1.789.313 2.686.468v-.479c-.9-.156-1.795-.314-2.686-.475"/><path d="m30.589 26.2v.456c.83.124 1.658.248 2.491.368v-.457c-.831-.123-1.665-.242-2.491-.367"/><path d="m33.419 27.07c.041.006.081.012.122.019l1.703-.208c-.611-.087-1.215-.179-1.825-.268v.457"/><path d="m27.716 25.753v.464c.84.13 1.683.259 2.528.386v-.459c-.846-.128-1.687-.259-2.528-.391"/><path d="m18.831 24.292v.479c.878.15 1.759.301 2.646.448v-.474c-.889-.148-1.766-.3-2.646-.453"/><path d="m3.097 21.306v.495c.946.196 1.898.389 2.854.581v-.494c-.956-.192-1.908-.385-2.854-.582"/><path d="m21.838 24.807v.471c.865.143 1.733.289 2.605.428v-.474c-.869-.141-1.742-.28-2.605-.425"/><path d="m24.798 25.291v.473c.851.137 1.71.268 2.568.402v-.466c-.859-.135-1.714-.272-2.568-.409"/><path d="m.801 20.826v.125.37c.78.167 1.115.234 1.901.397v-.495c-.786-.164-1.121-.23-1.901-.397"/><path d="m2.575 36.35v.458c-.782.039-1.07.046-1.774.089v-.46c.703-.042.992-.05 1.774-.087"/><path d="m9.405 36.545v-.455c.897-.026 1.819-.051 2.77-.073v.452c-.949.024-1.873.05-2.77.076"/><path d="m6.212 36.652v-.457c.901-.033 1.838-.064 2.811-.095v.455c-.971.032-1.909.063-2.811.097"/><path d="m2.969 36.79v-.458c.904-.043 1.855-.084 2.854-.122v.456c-.999.04-1.95.08-2.854.124"/><path d="m15.12 35.953c-.875.018-1.729.036-2.564.055v.454c.835-.02 1.689-.04 2.564-.058v-.451"/><path d="m15.12 40.638c-.068.006-.134.013-.201.019v.375c.067-.004.135-.011.201-.017v-.377"/><g fill="#5a5b5d"><path d="m42.609 32.01c5.01.548 10.203 1.05 15.608 1.505-1.033-1.141-1.67-2.63-2.044-4.312-4.929-.546-9.781-1.14-14.555-1.78.204 1.617.536 3.149.991 4.587"/><path d="m80.34 31.455c-3.091-.235-6.151-.491-9.188-.761-.968 3.03-3.111 5.146-6.848 5.146-2 0-3.551-.437-4.749-1.195v.739c-.276.042-.549.086-.826.126-5.01-.068-9.953-.117-14.749-.143 1.035 2.032 2.366 3.817 3.97 5.328 3.967-.381 7.833-.788 11.604-1.231v1.194c-3.497.35-6.916.76-10.221 1.225 1.3 1.01 2.745 1.865 4.328 2.553 1.938-.238 3.905-.458 5.894-.66v2.35c.728.116 1.47.209 2.232.272v-2.84c.345-.031.686-.064 1.027-.095v3.01c.005 0 .011 0 .015 0 .227.013.457.022.686.03.341.009.681.019 1.027.019.003 0 .003 0 .003 0s0 0 .002 0c.454 0 .9-.014 1.344-.036v-3.283c4.01-.327 8.05-.585 12.06-.793 2.207-1.67 3.997-3.816 5.283-6.39-.252-.006-.505-.013-.755-.02.284-.055.562-.112.844-.168.821-1.677 1.429-3.531 1.806-5.547-1.569.402-3.16.797-4.791 1.175"/></g><path d="m62.815 40.35c-.342.031-.683.062-1.027.095v-1.249c.345-.042.688-.082 1.027-.125v1.279"/><path d="m79.54 39.22c-4.534.218-9.124.503-13.65.868v-1.415c.075-.009.154-.021.229-.03 4.478.08 8.97.176 13.421.29v.287"/><path d="m83.18 31.639c.1-.024.2-.047.299-.07v-.475c-.613.151-1.231.297-1.854.446l1.555.099"/><path d="m79.49 32.02c.023 0 .045.003.065.004v-.02c-.02.005-.042.01-.065.016"/><path d="m79.81 31.953v.095c.279.02.558.042.838.062v-.34c-.003-.002-.006-.002-.01-.002-.272.063-.549.123-.828.185"/><path d="m80.986 31.794v.343c.017 0 .035.001.052.003.149-.035.297-.067.444-.103.045-.009.103-.024.167-.038v-.156c-.221-.016-.441-.031-.663-.049"/><path d="m81.901 31.863v.077c.078-.018.159-.038.246-.058-.081-.007-.163-.013-.246-.019"/><path d="m52.08 29.05v.409c.737.083 1.469.168 2.208.25v-.405c-.739-.083-1.472-.169-2.208-.254"/><path d="m49.53 28.752v.416c.744.087 1.492.172 2.24.257v-.41c-.748-.088-1.496-.174-2.24-.263"/><path d="m44.32 28.11v.427c.768.096 1.537.191 2.309.284v-.421c-.773-.094-1.541-.192-2.309-.29"/><path d="m46.945 28.437v.421c.757.092 1.515.183 2.275.274v-.417c-.76-.092-1.517-.185-2.275-.278"/><path d="m73.34 31.18v.361c.637.055 1.284.103 1.924.155v-.355c-.643-.054-1.284-.107-1.924-.161"/><path d="m71.12 30.984v.363c.654.058 1.302.116 1.955.168v-.363c-.653-.054-1.304-.111-1.955-.168"/><path d="m77.68 31.888c.179.012.354.028.533.04.386-.084.772-.171 1.157-.258-.567-.044-1.125-.091-1.69-.136v.354"/><path d="m75.53 31.36v.354c.631.051 1.262.103 1.895.153v-.352c-.63-.052-1.264-.102-1.895-.155"/><path d="m79.43 36.566v.131c-.217-.006-.432-.011-.646-.017.214-.037.432-.074.646-.114"/><path d="m51.949 36.26v-.417c.733.006 1.471.016 2.207.023v.303c-.243.036-.482.069-.726.104-.496-.005-.988-.008-1.481-.013"/><path d="m49.4 36.24v-.42c.746.006 1.491.013 2.241.019v.419c-.748-.009-1.497-.013-2.241-.018"/><path d="m56.15 35.889c-.566-.006-1.125-.012-1.69-.017v.257c.565-.079 1.132-.159 1.69-.24"/><path d="m46.818 36.23v-.421c.756.004 1.512.01 2.275.016v.42c-.761-.005-1.52-.01-2.275-.015"/><path d="m53.32 41.838v.441c.627-.077 1.263-.151 1.896-.226v-.441c-.633.073-1.269.148-1.896.226"/><path d="m57.6 41.34v.436c.611-.067 1.222-.134 1.839-.199v-.432c-.617.062-1.228.129-1.839.195"/><path d="m51.13 42.12v.446c.639-.086 1.279-.17 1.926-.251v-.442c-.647.08-1.287.161-1.926.247"/><path d="m55.48 41.582v.44c.619-.073 1.242-.146 1.869-.213v-.437c-.627.068-1.25.139-1.869.21"/><path d="m73.48 40.01v.41c.547-.036 1.089-.068 1.633-.103v-.406c-.543.03-1.086.063-1.633.099"/><path d="m78.959 40.1c.195-.011.39-.023.583-.033v-.402c-.193.011-.388.023-.583.033v.402"/><path d="m77.16 39.791v.405c.528-.031 1.057-.061 1.583-.087v-.403c-.526.027-1.055.055-1.583.085"/><path d="m71.6 40.13v.414c.55-.038 1.102-.075 1.655-.113v-.411c-.554.036-1.106.074-1.655.11"/><path d="m75.34 39.895v.407c.535-.031 1.072-.064 1.604-.094v-.407c-.532.03-1.069.061-1.604.094"/><path d="m67.75 40.41v.419c.57-.045 1.135-.092 1.708-.134v-.417c-.573.042-1.139.087-1.708.132"/><path d="m61.788 41.35c.342-.033.686-.065 1.027-.097v-.426c-.342.033-.685.062-1.027.095v.428"/><path d="m65.892 40.557v.421c.538-.045 1.081-.083 1.62-.127v-.421c-.539.042-1.082.082-1.62.127"/><path d="m69.69 40.26v.417c.562-.043 1.122-.081 1.684-.12v-.415c-.561.039-1.122.078-1.684.118"/><path d="m55.39 36.31l1.62-.24v.26z"/><path d="m57.31 36.33h.667l1.503-.22v-.174l-1.4-.019-.77.113z"/><path d="m83.82 31.01v.479c.374-.091.738-.186 1.106-.278.04-.169.078-.338.112-.511-.405.105-.807.211-1.218.31"/><path d="m81.78 36.36v.392c.352.007.702.017 1.052.026.07-.126.137-.256.204-.383-.417-.011-.835-.022-1.256-.035"/><path d="m50.42 42.664c.148-.02.292-.043.442-.062v-.447c-.326.044-.646.09-.967.135.175.124.347.254.525.374"/><path d="m44.46 36.21c.678.003 1.36.006 2.044.011v-.424c-.764-.003-1.528-.007-2.283-.013.077.145.157.286.239.426"/><path d="m44 28.07c-.781-.1-1.558-.2-2.333-.302.021.148.042.294.066.441.753.098 1.51.192 2.268.288v-.427z"/><path d="m56.25 29.518c-.556-.06-1.113-.12-1.667-.18v.403c.588.064 1.182.126 1.774.188-.038-.135-.072-.273-.107-.411"/><path d="m68.42 34.661c.442-.078.89-.152 1.326-.232v-.072l-.868-.05c-.146.126-.299.244-.458.354"/><g fill="#5a5b5d"><path d="m129.44 42.2l.3.017v-3.997l-.238-.02c-1.818-.145-3.744-.286-5.762-.421 0-.536 0-.922 0-1.097 1.887.042 3.789.08 5.716.113l.284.005v-3.072l-.267-.005c-4.733-.085-9.411-.21-14.05-.366v3.125c2.256.059 4.537.114 6.847.167v1.033c-2.186-.141-4.474-.276-6.847-.405v4.494c2.526.037 4.832.088 6.847.146v3.448h1.467c0-1.08 0-2.264 0-3.404 2.421.078 4.361.163 5.7.239"/><path d="m101.9 41.719v-5.076c-.12-.006-.237-.011-.356-.016v-.589c.12.005.237.007.356.013v-3.25c-.12-.004-.237-.011-.356-.017v-.047l-.267.033c-1.366-.067-2.727-.139-4.083-.214 1.591-.444 3.153-.919 4.707-1.41v-2.706h7.761c3.855-1.477 7.607-3.113 11.248-4.966 3.219-.394 6.43-.787 8.83-1.082v-12.385l-.545.397c-4.973 3.62-10.149 6.774-15.668 9.545l-7.585.929-1.933.235v3.103c-5.125 2.043-10.571 3.828-16.421 5.416v15.731h.918v-3.395c.399-.011.798-.023 1.193-.035v3.43h1.811c0-1.09 0-2.295 0-3.479 2.817-.069 5.568-.117 8.228-.146 0 1.247 0 2.5 0 3.625h1.808v-3.643c.121.001.235.001.354-.001"/></g><path d="m89.7 36.2c-.396-.013-.794-.025-1.193-.037v-.683c.399.019.793.041 1.193.06v.66"/><path d="m99.73 36.556c-2.693-.105-5.44-.203-8.228-.293 0-.211 0-.38 0-.481.199-.025.528-.066.931-.114 2.398.107 4.827.208 7.296.304.001.179.001.377.001.584"/><path d="m124.86 13.966v.702c1.036-.674 2.062-1.371 3.078-2.083v-.671c-1.02.703-2.043 1.386-3.078 2.052"/><path d="m89.62 29.485v.499c.877-.241 1.745-.489 2.605-.74v-.515c-.86.257-1.728.509-2.605.756"/><path d="m101.76 26.11c.752-.277 1.5-.558 2.243-.848v-.598c-.743.294-1.488.583-2.243.866v.58"/><path d="m121.41 16.11v.71c1.022-.61 2.032-1.24 3.03-1.884v-.697c-1 .641-2.01 1.262-3.03 1.871"/><path d="m95.6 27.675v.537c.905-.287 1.8-.58 2.688-.88v-.556c-.888.307-1.783.607-2.688.899"/><path d="m114.76 19.807l1.717-.208c.377-.201.75-.407 1.127-.61v-.696c-.941.514-1.887 1.022-2.844 1.514"/><path d="m98.66 26.649v.559c.918-.313 1.827-.632 2.728-.959v-.579c-.901.333-1.81.659-2.728.979"/><path d="m129.74 10.637c-.519.373-.857.618-1.379.981v.669c.523-.371.86-.625 1.379-1.01v-.644"/><path d="m118.01 18.07v.699c1-.553 2-1.122 2.987-1.705v-.705c-.986.585-1.981 1.155-2.987 1.711"/><path d="m92.59 28.619v.516c.889-.262 1.772-.532 2.646-.807v-.533c-.873.28-1.753.556-2.646.824"/><path d="m129.3 34.32c.208.005.236.009.444.013v-.281c-.208-.004-.237-.011-.444-.014v.282"/><path d="m119.07 33.785v.286c-.449-.014-.893-.03-1.341-.043v-.288c.449.015.892.03 1.341.045"/><path d="m116.19 33.689v.288c.454.014.907.03 1.36.044v-.287c-.453-.014-.906-.029-1.36-.045"/><path d="m119.25 33.791v.285c.442.013.883.023 1.321.036v-.285c-.438-.014-.879-.024-1.321-.036"/><path d="m127.93 34.01v.282c.402.009.806.017 1.208.025v-.282c-.403-.007-.806-.017-1.208-.025"/><path d="m126.53 33.977v.283c.41.009.818.017 1.225.026v-.282c-.407-.009-.816-.018-1.225-.027"/><path d="m123.69 33.912v.282c.42.011.84.022 1.261.031v-.282c-.42-.011-.841-.022-1.261-.031"/><path d="m122.23 33.871v.285c.426.011.854.024 1.282.033v-.283c-.428-.011-.855-.024-1.282-.035"/><path d="m125.13 33.946v.283c.412.009.828.018 1.244.027v-.282c-.417-.011-.832-.017-1.244-.028"/><path d="m120.76 33.831v.285c.433.012.866.023 1.301.034v-.283c-.434-.012-.868-.024-1.301-.036"/><path d="m97.54 32.868v.313c.084.003.167.01.252.015l1.353-.167v-.069c-.536-.032-1.071-.062-1.605-.092"/><path d="m99.37 32.969v.034l.192-.025c-.064-.001-.127-.006-.192-.009"/><path d="m96.26 32.797c-.19.053-.382.105-.57.156v.126c.542.029 1.086.061 1.63.088v-.312c-.353-.018-.707-.037-1.06-.058"/><path d="m95.3 33.06c.055.003.109.006.165.008v-.051c-.056.011-.11.028-.165.043"/><path d="m89.59 36.582v.384c-.364-.011-.729-.023-1.092-.033v-.383c.363.011.728.022 1.092.032"/><path d="m95.56 37.15v-.378c.549.018 1.087.039 1.63.059v.375c-.542-.018-1.081-.037-1.63-.056"/><path d="m97.42 37.22v-.375c.537.018 1.076.037 1.608.058v.375c-.532-.02-1.071-.039-1.608-.058"/><path d="m99.24 37.28v-.375c.162.006.331.01.492.017 0 .125 0 .246 0 .376-.162-.008-.33-.012-.492-.018"/><path d="m93.68 37.09v-.38c.553.018 1.109.037 1.654.056v.379c-.545-.019-1.101-.037-1.654-.055"/><path d="m91.77 37.03v-.382c.564.019 1.12.038 1.682.056v.38c-.562-.018-1.118-.037-1.682-.054"/><path d="m91.54 36.643v.38c-.009 0-.02 0-.029 0 0-.136 0-.263 0-.382.009.001.019.002.029.002"/><path d="m116.06 38.03v-.366c.457.025.914.05 1.362.075v.365c-.448-.025-.905-.049-1.362-.074"/><path d="m122.11 38.38v-.365c.054.004.109.007.163.011v.364c-.054-.003-.109-.007-.163-.01"/><path d="m117.61 38.11v-.366c.452.024.9.051 1.341.076v.365c-.441-.025-.889-.05-1.341-.075"/><path d="m119.13 38.2v-.365c.443.026.884.053 1.321.08v.363c-.436-.027-.877-.052-1.321-.078"/><path d="m121.93 38.37v-.365c-.432-.026-.862-.053-1.301-.081v.365c.438.026.869.054 1.301.081"/><path d="m129.01 38.868v-.365c-.396-.031-.801-.062-1.206-.093v.365c.405.031.81.062 1.206.093"/><path d="m126.24 38.659v-.364c-.408-.028-.822-.058-1.242-.088v.365c.42.028.835.058 1.242.087"/><path d="m123.74 38.12c0 .12 0 .235 0 .364.366.025.726.048 1.087.074v-.364c-.361-.025-.721-.049-1.087-.074"/><path d="m127.63 38.762v-.365c-.403-.029-.81-.06-1.223-.09v.364c.413.03.82.06 1.223.091"/><path d="m129.17 38.88v-.364c.25.02.325.016.571.036v.364c-.246-.02-.321-.017-.571-.036"/><path d="m92.22 39.3v.26c-.237.006-.472.013-.71.019 0-.1 0-.204 0-.304.238.008.473.017.71.025"/><path d="m96.59 39.454c-.351.008-.711.018-1.064.025v-.062c.353.012.71.024 1.064.037"/><path d="m92.41 39.31v.249c.461-.014.922-.026 1.38-.039v-.166c-.458-.013-.919-.028-1.38-.044"/><path d="m95.34 39.41v.073c-.455.011-.905.02-1.365.031v-.152c.457.014.911.032 1.365.048"/><path d="m88.5 39.29v.389c.167-.006.332-.013.499-.018v-.388c-.167.007-.333.011-.499.017"/><path d="m89.2 39.653c.165-.005.331-.009.498-.016v-.386c-.167.004-.333.011-.498.016v.386"/><path d="m87.58 30.531c.561-.148 1.125-.294 1.68-.446v-.502c-.553.154-1.119.304-1.68.454v.494"/><path d="m101.9 33.1c-.12-.006-.237-.012-.356-.017v.304c.12.006.237.013.356.019v-.306"/><path d="m101.9 37.01c-.12-.005-.237-.011-.356-.016v.374c.12.004.237.011.356.016v-.374"/><path d="m115.42 37.996c.149.006.299.014.449.023v-.366c-.15-.007-.299-.016-.449-.025v.368"/><path d="m115.42 33.953c.191.004.385.012.577.017v-.287c-.192-.006-.385-.013-.577-.019v.289"/><path d="m.883 56.852v-8.04h3.875c2.312 0 3.429 1.06 3.429 2.714 0 1.729-1.028 2.825-3.34 2.825h-1.33v2.5h-2.634m3.731-4.376c.614 0 1.061-.246 1.061-.939 0-.748-.848-.848-1.407-.848h-.749v1.787h1.095z"/><path d="m12.512 56.852l-.112-.625c-.659.615-1.329.793-2.2.793-1.106 0-2.088-.547-2.088-1.764 0-2.658 4.166-1.452 4.166-2.545 0-.425-.514-.482-.76-.482-.324 0-.759.067-.815.569h-2.234c0-1.238.883-1.964 3.194-1.964 2.77 0 2.938 1.027 2.938 2.422v2.736c0 .336.011.503.312.75v.11h-2.401m-.234-2.59c-.76.368-1.765.19-1.765.949 0 .292.279.491.737.491.816 0 1.083-.636 1.028-1.44z"/><path d="m19.35 53.23c-.011-.255-.101-.458-.247-.603-.145-.156-.346-.235-.603-.235-.871 0-1.015.906-1.015 1.599 0 .882.334 1.462 1.015 1.462.603 0 .839-.412.906-.87h2.345c-.101.881-.502 1.495-1.094 1.887-.581.378-1.341.547-2.156.547-1.887 0-3.339-1.061-3.339-3.039 0-1.997 1.407-3.148 3.339-3.148 1.563 0 3.039.669 3.206 2.4h-2.357"/><path d="m24.691 55.21v1.642h-2.323v-8.04h2.323v3.976l1.489-1.788h2.71l-2.166 2.27 2.446 3.582h-2.793l-1.247-2.076z"/><path d="m31.417 54.45c0 .691.536 1.149 1.151 1.149.368 0 .703-.168.871-.515h2.223c-.402 1.453-1.877 1.933-3.239 1.933-1.876 0-3.328-1.072-3.328-3.039 0-1.919 1.441-3.148 3.317-3.148 2.167 0 3.474 1.497 3.44 3.62h-4.435m2.111-1.185c0-.536-.481-1.016-1.028-1.016-.692 0-1.083.389-1.083 1.016h2.111z"/><path d="m40.12 56.852c-3.049.168-3.417-.044-3.417-2.066v-2.446h-.826v-1.34h.859v-1.82h2.29v1.82h1.117v1.34h-1.117v2.123c0 .536.079.726.726.726h.368v1.663"/><path d="m49.31 51.883c-.078-.838-.603-1.318-1.429-1.318-.927 0-1.485.793-1.485 2.345 0 1.128.245 2.189 1.585 2.189.849 0 1.251-.59 1.352-1.363h2.535c-.234 2.079-1.719 3.33-3.841 3.33-2.659 0-4.268-1.631-4.268-4.244 0-2.602 1.766-4.221 4.01-4.221 2.458 0 3.831 1.217 4.04 3.283h-2.502"/><path d="m52.42 48.812h2.324v8.04h-2.324z"/><path d="m57.639 54.45c0 .691.536 1.149 1.151 1.149.369 0 .703-.168.871-.515h2.223c-.402 1.453-1.876 1.933-3.239 1.933-1.876 0-3.329-1.072-3.329-3.039 0-1.919 1.441-3.148 3.317-3.148 2.167 0 3.474 1.497 3.44 3.62h-4.434m2.112-1.185c0-.536-.481-1.016-1.028-1.016-.692 0-1.083.389-1.083 1.016h2.111z"/><path d="m66.62 56.852l-.112-.625c-.659.615-1.33.793-2.201.793-1.105 0-2.089-.547-2.089-1.764 0-2.658 4.167-1.452 4.167-2.545 0-.425-.515-.482-.759-.482-.325 0-.761.067-.816.569h-2.234c0-1.238.883-1.964 3.194-1.964 2.771 0 2.938 1.027 2.938 2.422v2.736c0 .336.011.503.312.75v.11h-2.4m-.235-2.59c-.759.368-1.765.19-1.765.949 0 .292.279.491.737.491.814 0 1.082-.636 1.028-1.44z"/><path d="m69.49 51h2.112v1.184h.022c.324-.916.894-1.351 1.798-1.351.102 0 .201.023.302.033v2.325c-.158-.023-.324-.069-.48-.069-.95 0-1.43.447-1.43 1.709v2.02h-2.324v-5.852"/><path d="m74.09 48.6h2.323v1.652h-2.323v-1.652m0 8.252v-5.852h2.323v5.852h-2.323z"/><path d="m77.17 51h2.122v.916c.525-.703 1.094-1.083 1.976-1.083 1.542 0 2.267.905 2.267 2.513v3.505h-2.321v-3.093c0-.581-.157-1.095-.817-1.095-.713 0-.903.458-.903 1.206v2.982h-2.323v-5.851z"/><path d="m86.62 57.15c0 .067.045.167.146.257.1.089.268.145.501.145.67 0 .938-.302.938-1.139v-.48c-.335.335-.837.637-1.675.637-1.619 0-2.545-1.274-2.545-2.77 0-1.441.691-2.971 2.613-2.971.704 0 1.364.369 1.776.938v-.771h2.044v4.714c0 1.753-.201 3.126-3.083 3.126-2.067 0-2.938-.826-3.049-1.686h2.334m-.312-3.328c0 .581.29 1.128.917 1.139.713.033.981-.582.981-1.206 0-.647-.244-1.262-.981-1.262-.705-.011-.917.568-.917 1.329z"/><path d="m94.67 56.852v-8.04h2.63v2.718h2.49v-2.718h2.64v8.04h-2.64v-3.117h-2.49v3.117z"/><path d="m106.43 50.833c2.066 0 3.339 1.216 3.339 3.036 0 2.146-1.452 3.151-3.328 3.151-1.876 0-3.328-1.028-3.328-3.03-.001-2.034 1.339-3.161 3.317-3.161m-.994 3.036c0 1.106.413 1.587 1 1.587.625 0 1-.48 1-1.587 0-.858-.38-1.506-.982-1.474-.794.001-1.027.817-1.027 1.474z"/><path d="m116.59 56.852h-2.155v-.86c-.581.805-1.15 1.028-2.111 1.028-1.273 0-2.099-.782-2.099-2.458v-3.562h2.323v3.161c0 .804.279 1.061.837 1.061.669 0 .881-.502.881-1.407v-2.815h2.323v5.852z"/><path d="m119.25 55.03c0 .234.089.415.245.536.146.112.347.179.57.179.356 0 .737-.111.737-.525 0-.938-3.585-.19-3.585-2.457 0-1.497 1.553-1.932 2.771-1.932 1.273 0 2.769.292 2.904 1.843h-2.111c-.024-.189-.102-.324-.225-.423-.122-.102-.29-.146-.469-.146-.402 0-.659.123-.659.414 0 .813 3.697.268 3.697 2.456 0 1.218-1 2.044-3.149 2.044-1.34 0-2.816-.413-2.938-1.988h2.212z"/><path d="m125.68 54.45c0 .691.536 1.149 1.149 1.149.37 0 .705-.168.873-.515h2.222c-.402 1.453-1.875 1.933-3.239 1.933-1.876 0-3.328-1.072-3.328-3.039 0-1.919 1.441-3.148 3.317-3.148 2.167 0 3.473 1.497 3.44 3.62h-4.434m2.111-1.185c0-.536-.479-1.016-1.028-1.016-.692 0-1.083.389-1.083 1.016h2.111z"/></svg>